{
	"asset":{
		"generator":"Khronos glTF Blender I/O v4.0.44",
		"version":"2.0"
	},
	"extensionsUsed":[
		"KHR_materials_emissive_strength",
		"KHR_lights_punctual"
	],
	"extensionsRequired":[
		"KHR_lights_punctual"
	],
	"extensions":{
		"KHR_lights_punctual":{
			"lights":[
				{
					"color":[
						1,
						1,
						1
					],
					"intensity":683,
					"type":"directional",
					"name":"Sun"
				}
			]
		}
	},
	"scene":0,
	"scenes":[
		{
			"name":"Scene",
			"nodes":[
				0,
				1,
				2
			]
		}
	],
	"nodes":[
		{
			"mesh":0,
			"name":"Plane"
		},
		{
			"camera":0,
			"name":"Camera -noimp",
			"rotation":[
				-0.1269056499004364,
				0.8394054174423218,
				0.21460257470607758,
				0.48294854164123535
			],
			"translation":[
				10.115669250488281,
				6.460965633392334,
				-2.7725353240966797
			]
		},
		{
			"extensions":{
				"KHR_lights_punctual":{
					"light":0
				}
			},
			"name":"Sun -noimp",
			"rotation":[
				-0.6077924966812134,
				-0.14803265035152435,
				0.14803265035152435,
				0.7660032510757446
			],
			"translation":[
				0,
				20.934762954711914,
				0
			]
		}
	],
	"cameras":[
		{
			"name":"Camera.001",
			"perspective":{
				"aspectRatio":1.7777777777777777,
				"yfov":0.39959652046304894,
				"zfar":1000,
				"znear":0.10000000149011612
			},
			"type":"perspective"
		}
	],
	"materials":[
		{
			"doubleSided":true,
			"name":"Material.004",
			"pbrMetallicRoughness":{
				"baseColorFactor":[
					0.20366519689559937,
					0.20366519689559937,
					0.20366519689559937,
					1
				],
				"metallicFactor":0,
				"roughnessFactor":0.5
			}
		},
		{
			"doubleSided":true,
			"name":"Material.003",
			"pbrMetallicRoughness":{
				"baseColorFactor":[
					0.01726430281996727,
					0.3473808169364929,
					0.8001965880393982,
					1
				],
				"metallicFactor":0,
				"roughnessFactor":0.5
			}
		},
		{
			"doubleSided":true,
			"name":"Material.005",
			"pbrMetallicRoughness":{
				"baseColorFactor":[
					0.024252839386463165,
					0.06455033272504807,
					0.1435270756483078,
					1
				],
				"metallicFactor":0,
				"roughnessFactor":0.5
			}
		},
		{
			"doubleSided":true,
			"emissiveFactor":[
				1,
				0.014335732907056808,
				0.411182701587677
			],
			"extensions":{
				"KHR_materials_emissive_strength":{
					"emissiveStrength":4
				}
			},
			"name":"Material.006",
			"pbrMetallicRoughness":{
				"baseColorFactor":[
					0,
					0,
					0,
					1
				]
			}
		}
	],
	"meshes":[
		{
			"name":"Plane.001",
			"primitives":[
				{
					"attributes":{
						"POSITION":0,
						"NORMAL":1,
						"TEXCOORD_0":2
					},
					"indices":3,
					"material":0
				},
				{
					"attributes":{
						"POSITION":4,
						"NORMAL":5,
						"TEXCOORD_0":6
					},
					"indices":7,
					"material":1
				},
				{
					"attributes":{
						"POSITION":8,
						"NORMAL":9,
						"TEXCOORD_0":10
					},
					"indices":11,
					"material":2
				},
				{
					"attributes":{
						"POSITION":12,
						"NORMAL":13,
						"TEXCOORD_0":14
					},
					"indices":15,
					"material":3
				}
			]
		}
	],
	"accessors":[
		{
			"bufferView":0,
			"componentType":5126,
			"count":144,
			"max":[
				5,
				2.066565752029419,
				1
			],
			"min":[
				-4,
				-1.683434009552002,
				-8.003856658935547
			],
			"type":"VEC3"
		},
		{
			"bufferView":1,
			"componentType":5126,
			"count":144,
			"type":"VEC3"
		},
		{
			"bufferView":2,
			"componentType":5126,
			"count":144,
			"type":"VEC2"
		},
		{
			"bufferView":3,
			"componentType":5123,
			"count":234,
			"type":"SCALAR"
		},
		{
			"bufferView":4,
			"componentType":5126,
			"count":4,
			"max":[
				0.75,
				1.5,
				-1
			],
			"min":[
				-0.75,
				1,
				-1.75
			],
			"type":"VEC3"
		},
		{
			"bufferView":5,
			"componentType":5126,
			"count":4,
			"type":"VEC3"
		},
		{
			"bufferView":6,
			"componentType":5126,
			"count":4,
			"type":"VEC2"
		},
		{
			"bufferView":7,
			"componentType":5123,
			"count":6,
			"type":"SCALAR"
		},
		{
			"bufferView":8,
			"componentType":5126,
			"count":100,
			"max":[
				5,
				0.5665658116340637,
				1
			],
			"min":[
				-5,
				-0.9334341883659363,
				-8.003856658935547
			],
			"type":"VEC3"
		},
		{
			"bufferView":9,
			"componentType":5126,
			"count":100,
			"type":"VEC3"
		},
		{
			"bufferView":10,
			"componentType":5126,
			"count":100,
			"type":"VEC2"
		},
		{
			"bufferView":11,
			"componentType":5123,
			"count":174,
			"type":"SCALAR"
		},
		{
			"bufferView":12,
			"componentType":5126,
			"count":16,
			"max":[
				3,
				2.066565752029419,
				-7.928855895996094
			],
			"min":[
				-3,
				-1.683434009552002,
				-8.003856658935547
			],
			"type":"VEC3"
		},
		{
			"bufferView":13,
			"componentType":5126,
			"count":16,
			"type":"VEC3"
		},
		{
			"bufferView":14,
			"componentType":5126,
			"count":16,
			"type":"VEC2"
		},
		{
			"bufferView":15,
			"componentType":5123,
			"count":30,
			"type":"SCALAR"
		}
	],
	"bufferViews":[
		{
			"buffer":0,
			"byteLength":1728,
			"byteOffset":0,
			"target":34962
		},
		{
			"buffer":0,
			"byteLength":1728,
			"byteOffset":1728,
			"target":34962
		},
		{
			"buffer":0,
			"byteLength":1152,
			"byteOffset":3456,
			"target":34962
		},
		{
			"buffer":0,
			"byteLength":468,
			"byteOffset":4608,
			"target":34963
		},
		{
			"buffer":0,
			"byteLength":48,
			"byteOffset":5076,
			"target":34962
		},
		{
			"buffer":0,
			"byteLength":48,
			"byteOffset":5124,
			"target":34962
		},
		{
			"buffer":0,
			"byteLength":32,
			"byteOffset":5172,
			"target":34962
		},
		{
			"buffer":0,
			"byteLength":12,
			"byteOffset":5204,
			"target":34963
		},
		{
			"buffer":0,
			"byteLength":1200,
			"byteOffset":5216,
			"target":34962
		},
		{
			"buffer":0,
			"byteLength":1200,
			"byteOffset":6416,
			"target":34962
		},
		{
			"buffer":0,
			"byteLength":800,
			"byteOffset":7616,
			"target":34962
		},
		{
			"buffer":0,
			"byteLength":348,
			"byteOffset":8416,
			"target":34963
		},
		{
			"buffer":0,
			"byteLength":192,
			"byteOffset":8764,
			"target":34962
		},
		{
			"buffer":0,
			"byteLength":192,
			"byteOffset":8956,
			"target":34962
		},
		{
			"buffer":0,
			"byteLength":128,
			"byteOffset":9148,
			"target":34962
		},
		{
			"buffer":0,
			"byteLength":60,
			"byteOffset":9276,
			"target":34963
		}
	],
	"buffers":[
		{
			"byteLength":9336,
			"uri":"fighter-0004423fe19a6c8014a7e06329507645.bin"
		}
	]
}
